<svg width="100" height="1.8rem" viewBox="0 0 381 101"><path fill="#FFF" d="M31.65 100.16C28.99 100.16 26.41 100.04 23.96 99.82 4.14 97.97.65 92.1.65 80.43L.65 53.46C.65 36.3 8.47 28.99 26.8 28.99L37 28.99C50.98 28.99 63.53 30.12 63.53 43.72 63.53 45.39 63.55 46.4 63.57 47.6L63.59 48.86C63.79 59.98 63.9 66.7 54.87 70.68 46.6 74.32 38.33 74.43 32.29 74.52 31.49 74.53 30.72 74.54 29.99 74.56 28.93 74.59 27.97 74.6 27.1 74.61L27 73.9 27.01 74.6C24.09 74.64 21.78 74.68 21.3 75.2 20.86 75.68 20.96 77.78 21.01 78.79 21.08 80.25 24.72 81.83 32.55 81.83 42.51 81.83 54.82 79.44 61.19 76.28L63.41 75.17 63.41 95.62 62.3 95.94C62.14 95.99 47.66 100.16 31.65 100.16zM35.23 44.75C34.44 44.75 33.63 44.76 32.8 44.78L32.52 44.78C31.74 44.79 30.95 44.8 30.17 44.8 24.48 44.8 22.58 45.66 21.73 48.63 21.45 49.61 21.45 51.84 21.45 52.79 21.45 55.33 22.66 57.28 24.67 58.01 25.78 58.41 28.23 58.88 31.48 58.88 35.05 58.88 38.37 58.29 40.83 57.22 43.49 56.06 43.47 54.88 43.36 50.49 43.35 50.18 43.35 50 43.34 49.84 43.33 49.56 43.32 49.34 43.32 48.69 43.31 45.71 41.35 44.75 35.23 44.75zM160.33 100.16C147.95 100.16 135.86 99.05 135.86 85.72 135.86 83.2 135.8 80.94 135.75 78.95 135.48 68.73 135.33 63.1 144.77 59.01 154.61 54.74 160.61 54.6 168.93 54.39L169.29 54.38C170.35 54.35 171.31 54.34 172.18 54.33 175.35 54.29 177.57 54.25 178.11 53.68 178.6 53.16 178.49 51.04 178.44 50.03 178.33 47.77 173.91 46.96 169.82 46.96 162.18 46.96 151.83 49.32 145.2 52.58 145.01 52.67 144.8 52.72 144.59 52.72 144.33 52.72 144.07 52.65 143.85 52.51 143.44 52.26 143.2 51.81 143.2 51.33L143.2 34.72C143.2 34.18 143.51 33.69 143.99 33.46 144.37 33.28 153.46 29.04 168.19 29.04 170.55 29.04 172.95 29.15 175.32 29.37 195.16 31.2 198.51 36.72 198.51 48.42 198.51 48.49 198.68 59.55 198.68 75.1 198.68 92.34 190.6 100.02 172.5 100.02 170.49 100.02 168.49 100.05 166.51 100.08L166.26 100.08C164.23 100.13 162.26 100.16 160.33 100.16zM167.79 69.69C164.44 69.69 162.13 69.81 158.33 71.46 155.62 72.64 155.64 73.65 155.76 77.91 155.78 78.8 155.81 79.74 155.81 80.79 155.81 83.85 157.81 84.84 164.05 84.84 164.78 84.84 165.53 84.83 166.29 84.82L166.49 84.82C167.36 84.81 168.24 84.79 169.12 84.79 175.48 84.79 178.07 82.35 178.07 76.37 178.08 76.12 178.1 74.14 176.5 72.44 174.77 70.61 171.85 69.69 167.79 69.69zM295.34 100.16C282.96 100.16 270.87 99.04 270.87 85.71 270.87 83.26 270.81 81.03 270.76 79.06L270.76 78.93C270.49 68.7 270.34 63.07 279.77 58.97 289.6 54.7 295.61 54.55 303.93 54.35L304.29 54.34C305.39 54.31 306.38 54.3 307.27 54.29 310.36 54.25 312.58 54.21 313.11 53.64 313.6 53.12 313.49 51 313.44 49.99 313.33 47.73 308.91 46.92 304.82 46.92 297.18 46.92 286.83 49.29 280.2 52.55 280.01 52.64 279.8 52.69 279.59 52.69 279.33 52.69 279.07 52.62 278.85 52.48 278.44 52.23 278.2 51.78 278.2 51.3L278.2 34.67C278.2 34.13 278.51 33.64 279 33.41 279.38 33.23 288.44 28.99 303.19 28.99 305.54 28.99 307.94 29.1 310.32 29.32 330.16 31.15 333.51 36.68 333.51 48.38 333.51 48.45 333.68 59.56 333.68 75.09 333.68 92.34 325.6 100.03 307.5 100.03 305.49 100.03 303.49 100.06 301.51 100.09L301.26 100.09C299.24 100.13 297.26 100.16 295.34 100.16zM302.79 69.67C299.44 69.67 297.13 69.79 293.33 71.44 290.62 72.62 290.64 73.63 290.76 77.9 290.78 78.76 290.81 79.72 290.81 80.78 290.81 83.85 292.81 84.83 299.05 84.83 299.84 84.83 300.66 84.82 301.48 84.8 302.35 84.79 303.23 84.77 304.12 84.77 310.48 84.77 313.07 82.33 313.07 76.34 313.08 76.09 313.1 74.11 311.5 72.41 309.78 70.59 306.85 69.67 302.79 69.67zM209.03 100.25C204.4 100.25 203.17 97.22 203.17 95.43L203.17 85.36C203.17 84.91 203.32 84.48 203.61 84.12L234.72 48.96 205.21 48.96C204.08 48.96 203.15 48.06 203.15 46.95L203.15 30.97C203.15 29.86 204.07 28.96 205.21 28.96L260.92 28.96C263.52 28.96 266.15 30.67 266.15 34.49 266.15 34.58 266.15 34.63 266.15 34.67L266.16 34.82 266.16 43.85C266.16 44.28 266.02 44.69 265.75 45.05L234.6 80.24 264.09 80.24C265.23 80.24 266.16 81.14 266.16 82.25L266.16 98.25C266.16 99.36 265.23 100.26 264.09 100.26L209.03 100.26 209.03 100.25zM339.58 100.25C338.8 100.25 338.17 99.61 338.17 98.82L338.17 30.36C338.17 29.57 338.8 28.93 339.58 28.93L358.45 28.93C359.23 28.93 359.86 29.57 359.86 30.36L359.86 39.53C363.24 33.21 370.45 29.14 378.7 28.9L378.7 28.9C379.52 28.9 380.15 29.55 380.15 30.34L380.15 52.09C380.15 52.88 379.52 53.52 378.74 53.52L378.57 53.51C377.71 53.4 376.83 53.35 375.96 53.35 368.18 53.35 359.87 57.35 359.87 68.56L359.87 98.83C359.87 99.62 359.24 100.26 358.46 100.26L339.58 100.26 339.58 100.25zM94.21 100.25C89.19 100.25 84.16 100.24 79.14 100.22L70.25 100.2C69.28 100.2 68.91 100.18 68.63 100L68.53 99.93 68.45 99.83C68.22 99.53 68.16 99.07 68.16 97.46 68.15 65.88 68.15 34.29 68.16 2.71 68.16 1.29 68.18.81 68.4.49L68.49.36 68.62.28C68.88.12 69.24.09 70.32.09 72.95.07 75.58.07 78.2.07 81.15.07 84.09.08 87.04.09 88.51.1 89.05.13 89.36.53 89.67.91 89.69 1.54 89.7 3.36 89.71 9.02 89.71 14.68 89.71 20.53L89.71 28.92 92.14 28.92C92.83 28.92 93.47 28.91 94.07 28.91 94.07 28.91 95.2 28.9 95.6 28.9 96.19 28.9 96.76 28.91 97.33 28.93 99.25 29.01 101.19 29.03 103.07 29.04 107.65 29.08 111.93 29.12 116.13 29.91 125.81 31.75 131.15 39.81 131.15 52.6L131.15 58.68C131.15 64.19 131.16 72.26 131.13 77.77L131.13 78.21C131.12 79.99 131.12 81.68 130.83 83.13 128.87 93.07 121.22 100.08 112.22 100.17 106.88 100.22 101.16 100.25 94.21 100.25zM92.31 79.77C93.45 79.77 94.59 79.79 95.71 79.81 96.84 79.83 97.96 79.85 99.08 79.85 100.89 79.85 102.37 79.8 103.74 79.69 107.56 79.38 109.88 75.98 109.64 71.05 109.55 69.16 109.55 64.99 109.58 62 109.59 60.63 109.61 59.26 109.59 57.89 109.53 52.38 107.34 49.5 103.09 49.33 101.87 49.28 100.55 49.26 98.94 49.26 97.89 49.26 96.83 49.27 95.75 49.28L95.29 49.28C94.32 49.29 93.33 49.3 92.31 49.3L89.88 49.3 89.88 79.77 92.31 79.77 92.31 79.77z"></path></svg>